<svg version="1.1" xmlns="http://www.w3.org/2000/svg">
	<symbol fill="none" viewBox="0 0 16 16" id="icon-arrow">
		<path fill="currentColor" d="M11.906 1.968a1.5 1.5 0 0 1 2.121 2.122L3.206 14.912a1.5 1.5 0 1 1-2.122-2.12L11.906 1.967Z"/>
		<path fill="currentColor" d="M1.5 3a1.5 1.5 0 1 1 0-3H14a2 2 0 0 1 2 2v12.5a1.5 1.5 0 0 1-3 0V5a2 2 0 0 0-2-2H1.5Z"/>
	</symbol>
	<symbol fill="none" viewBox="0 0 125 32" id="icon-logo">
		<path fill="currentColor" fill-rule="evenodd" d="M31 12H0v20h31V12ZM21 30a8 8 0 1 0 0-16 8 8 0 0 0 0 16Z" clip-rule="evenodd"/>
		<path fill="currentColor" d="M0 9h31v2H0V9ZM0 6h31v2H0V6ZM0 3h31v2H0V3ZM0 0h31v2H0V0ZM40 22.694V9.306h6.558c1.271 0 2.367.204 3.288.612.934.408 1.654.995 2.16 1.76.506.752.76 1.644.76 2.677 0 1.033-.254 1.925-.76 2.678-.506.752-1.226 1.339-2.16 1.76-.92.407-2.017.611-3.288.611h-4.009l2.043-1.931v5.221H40Zm4.592-4.724-2.043-2.046h3.717c.636 0 1.102-.14 1.4-.421.312-.28.468-.663.468-1.148 0-.484-.156-.867-.467-1.147-.299-.28-.766-.421-1.401-.421h-3.717l2.043-2.047v7.23ZM61.275 23c-1.103 0-2.128-.172-3.075-.516a7.356 7.356 0 0 1-2.432-1.454 6.953 6.953 0 0 1-1.615-2.238c-.377-.854-.565-1.785-.565-2.792 0-1.02.188-1.95.565-2.792a6.739 6.739 0 0 1 1.615-2.219A7.188 7.188 0 0 1 58.2 9.516C59.147 9.172 60.172 9 61.275 9c1.115 0 2.14.172 3.074.516a7.19 7.19 0 0 1 2.433 1.473 6.509 6.509 0 0 1 1.595 2.219c.39.841.584 1.772.584 2.792a6.655 6.655 0 0 1-.584 2.792 6.71 6.71 0 0 1-1.595 2.238 7.357 7.357 0 0 1-2.433 1.454c-.934.344-1.959.516-3.074.516Zm0-3.653c.428 0 .823-.077 1.187-.23.376-.152.7-.37.973-.65.285-.293.506-.644.661-1.052.156-.42.234-.892.234-1.415s-.078-.988-.234-1.396a2.822 2.822 0 0 0-.661-1.052 2.7 2.7 0 0 0-.973-.67 3.027 3.027 0 0 0-1.187-.229c-.428 0-.83.076-1.207.23a2.942 2.942 0 0 0-.973.669 2.96 2.96 0 0 0-.642 1.052A3.896 3.896 0 0 0 58.22 16c0 .523.077.994.233 1.415.156.408.37.759.642 1.052.286.28.61.498.973.65.376.153.779.23 1.207.23ZM71.246 22.943c-.286 0-.59-.02-.915-.058a8.516 8.516 0 0 1-1.031-.191l.233-3.615c.182.038.35.058.506.058.506 0 .882-.204 1.129-.612.246-.408.415-.957.506-1.645.09-.701.149-1.486.175-2.353l.175-5.221h11.5v13.388H79.01V11.85l.992.956H75.04l.895-1.014-.078 2.563a34.21 34.21 0 0 1-.272 3.52c-.13 1.045-.357 1.95-.681 2.715-.324.752-.785 1.333-1.382 1.74-.584.409-1.342.613-2.276.613ZM90.133 14.279h6.072v3.251h-6.072V14.28Zm.312 5.01h6.81v3.405H85.93V9.306h11.072v3.404h-6.557v6.58ZM102.212 22.694V11.831l.993.975h-4.982v-3.5h12.493v3.5h-4.982l.993-.975v10.863h-4.515ZM118.89 23c-1.09 0-2.102-.166-3.036-.497a7.402 7.402 0 0 1-2.413-1.454 6.639 6.639 0 0 1-1.576-2.218c-.376-.855-.564-1.798-.564-2.831s.188-1.976.564-2.83a6.639 6.639 0 0 1 1.576-2.22 7.145 7.145 0 0 1 2.413-1.434C116.788 9.172 117.8 9 118.89 9c1.336 0 2.517.23 3.541.689A6.56 6.56 0 0 1 125 11.678l-2.899 2.543a4.502 4.502 0 0 0-1.343-1.147 3.18 3.18 0 0 0-1.635-.421c-.48 0-.914.076-1.303.23a2.84 2.84 0 0 0-1.012.669c-.273.293-.487.65-.642 1.071a3.832 3.832 0 0 0-.234 1.377c0 .51.078.975.234 1.396.155.408.369.759.642 1.052a2.84 2.84 0 0 0 1.012.67c.389.152.823.229 1.303.229.61 0 1.155-.134 1.635-.402.493-.28.94-.669 1.343-1.166L125 20.322a6.804 6.804 0 0 1-2.569 1.99c-1.024.458-2.205.688-3.541.688Z"/>
	</symbol>
	<symbol fill="none" viewBox="0 0 11 19" id="icon-ok">
		<path fill="currentColor" d="m7.483 13.807 2.74 2.741a1.435 1.435 0 1 1-2.03 2.031L5.5 15.886l-2.692 2.693a1.434 1.434 0 0 1-2.031 0c-.56-.56-.56-1.47 0-2.03l2.74-2.742A9.193 9.193 0 0 1 .67 12.63a1.437 1.437 0 0 1 1.53-2.433 6.221 6.221 0 0 0 6.598 0 1.437 1.437 0 0 1 1.53 2.432 9.179 9.179 0 0 1-2.846 1.18Z"/>
		<path fill="currentColor" fill-rule="evenodd" d="M.586 4.903a4.906 4.906 0 0 0 4.901 4.901 4.906 4.906 0 0 0 4.902-4.901A4.907 4.907 0 0 0 5.487 0a4.907 4.907 0 0 0-4.9 4.903Zm6.93.001c0-1.12-.91-2.03-2.029-2.03-1.118 0-2.029.91-2.029 2.03 0 1.119.911 2.03 2.03 2.03 1.118 0 2.029-.911 2.029-2.03Z" clip-rule="evenodd"/>
	</symbol>
	<symbol fill="none" viewBox="0 0 55 64" id="icon-play">
		<path fill="currentColor" d="M52.325 28.575c2.578 1.556 2.578 5.294 0 6.85L6.067 63.339C3.4 64.948 0 63.028 0 59.914V4.086C0 .972 3.4-.948 6.067.66l46.258 27.914Z"/>
	</symbol>
	<symbol fill="none" viewBox="0 0 16 13" id="icon-tg">
		<path fill="currentColor" d="M.727 6.047c1.534-.885 3.247-1.623 4.848-2.365 2.753-1.215 5.517-2.41 8.31-3.521.543-.19 1.52-.375 1.615.467-.052 1.193-.268 2.379-.416 3.564-.375 2.607-.81 5.206-1.232 7.804-.146.866-1.182 1.314-1.845.76-1.594-1.126-3.2-2.241-4.772-3.394-.516-.548-.038-1.335.422-1.726 1.313-1.353 2.705-2.503 3.948-3.926.336-.848-.655-.134-.982.085-1.797 1.296-3.55 2.67-5.444 3.81-.968.556-2.095.08-3.062-.23-.868-.377-2.138-.755-1.39-1.328Z"/>
	</symbol>
	<symbol fill="none" viewBox="0 0 12 13" id="icon-upload">
		<path stroke="currentColor" stroke-linecap="round" stroke-linejoin="round" d="M11.5 8.333v.734c0 1.026 0 1.54-.2 1.932a1.834 1.834 0 0 1-.801.801c-.392.2-.906.2-1.932.2H3.433c-1.026 0-1.54 0-1.932-.2A1.834 1.834 0 0 1 .7 11c-.2-.392-.2-.906-.2-1.932v-.734m8.556-3.055L6 8.333m0 0L2.944 5.278M6 8.333V1"/>
	</symbol>
	<symbol fill="none" viewBox="0 0 17 10" id="icon-vk">
		<path fill="currentColor" d="M9.334 9.958s.307-.035.464-.209c.144-.16.139-.46.139-.46s-.02-1.406.613-1.613c.624-.204 1.425 1.359 2.274 1.96.642.454 1.13.355 1.13.355l2.27-.033s1.187-.075.625-1.038c-.047-.079-.329-.712-1.688-2.014-1.425-1.362-1.233-1.142.481-3.499 1.044-1.435 1.462-2.31 1.331-2.686-.124-.358-.892-.263-.892-.263l-2.556.017s-.19-.027-.33.06c-.137.084-.226.282-.226.282s-.404 1.11-.944 2.055c-1.138 1.993-1.593 2.098-1.78 1.975-.432-.29-.324-1.16-.324-1.777 0-1.932.284-2.737-.553-2.945C9.09.055 8.886.01 8.175.002c-.912-.01-1.684.004-2.121.224-.291.147-.516.474-.379.493.169.023.551.106.754.39.262.369.253 1.193.253 1.193s.15 2.274-.352 2.556c-.344.194-.816-.201-1.831-2.01-.52-.925-.912-1.95-.912-1.95S3.51.709 3.375.606C3.212.48 2.983.442 2.983.442L.554.458S.19.468.055.632c-.119.145-.009.446-.009.446s1.902 4.588 4.055 6.9c1.975 2.12 4.217 1.98 4.217 1.98h1.016Z"/>
	</symbol>
	<symbol fill="none" viewBox="0 0 19 19" id="icon-whatsapp">
		<path fill="currentColor" fill-rule="evenodd" d="M9.54 18.837h-.004a9.488 9.488 0 0 1-4.521-1.146L0 19l1.342-4.879A9.364 9.364 0 0 1 .08 9.414C.081 4.224 4.325 0 9.54 0a9.422 9.422 0 0 1 6.693 2.761A9.335 9.335 0 0 1 19 9.421c-.002 5.19-4.244 9.414-9.46 9.416Zm-4.293-2.85.288.169a7.88 7.88 0 0 0 4.002 1.09h.003c4.334 0 7.861-3.51 7.863-7.825a7.76 7.76 0 0 0-2.301-5.536 7.828 7.828 0 0 0-5.56-2.295c-4.336 0-7.864 3.51-7.865 7.825-.001 1.478.415 2.918 1.202 4.164l.187.296-.795 2.888 2.976-.777Zm8.735-4.537c.165.079.276.132.324.211.059.098.059.57-.138 1.119-.197.55-1.141 1.051-1.596 1.119-.407.06-.922.085-1.488-.094a13.61 13.61 0 0 1-1.348-.495c-2.216-.953-3.714-3.09-3.997-3.494a2.796 2.796 0 0 0-.041-.058l-.002-.003c-.125-.166-.963-1.28-.963-2.431 0-1.084.535-1.652.78-1.913l.047-.05a.87.87 0 0 1 .63-.294c.158 0 .316.002.453.008l.053.001c.138 0 .31-.002.48.403l.26.63c.204.494.429 1.038.468 1.117.06.118.099.255.02.412l-.033.067c-.06.12-.103.209-.204.326-.04.045-.08.095-.12.144-.082.099-.163.198-.234.268-.118.117-.242.244-.104.48.138.235.612 1.006 1.315 1.63.756.67 1.412.954 1.745 1.097.065.028.117.05.156.07.236.118.374.098.512-.059s.591-.687.749-.922c.157-.236.315-.196.532-.118.216.079 1.378.648 1.615.765.046.024.09.044.13.064Z" clip-rule="evenodd"/>
	</symbol>
</svg>
